# xmcd CD database file
#
# Track frame offsets:
#	150
#	10629
#	20975
#	32904
#	43644
#	53858
#	64540
#	78302
#	92116
#	102160
#	115186
#	127159
#	135010
#	151231
#	162249
#	177190
#	185492
#	194290
#	207717
#	227632
#	237807
#
# Disc length: 3327 seconds
#
# Revision: 2
# Processed by: cddbd v1.5.2PL0 Copyright (c) Steve Scherf et al.
# Submitted via: CDex 1.51
#
DISCID=140cfd15
DTITLE=Rangers - Zlaté hity
DYEAR=2002
DGENRE=Country
TTITLE0=Zvednìte kotvy
TTITLE1=Ta zem je tvá zem
TTITLE2=Kingston Town
TTITLE3=Orchidej
TTITLE4=Vím, vím
TTITLE5=Neplaè malá
TTITLE6=Colorado
TTITLE7=500 mil
TTITLE8=Zlatý zvony
TTITLE9=Smutný psaní
TTITLE10=Mám radost
TTITLE11=Modrý mìsíc
TTITLE12=Pole s bavlnou
TTITLE13=Král silnic
TTITLE14=Vysoèina
TTITLE15=Plavci
TTITLE16=Oh Shenando
TTITLE17=Nos pro trable
TTITLE18=Kopej hrob mùj
TTITLE19=Teèe voda
TTITLE20=Tulák
EXTD=YEAR: 2002
EXTT0=
EXTT1=
EXTT2=
EXTT3=
EXTT4=
EXTT5=
EXTT6=
EXTT7=
EXTT8=
EXTT9=
EXTT10=
EXTT11=
EXTT12=
EXTT13=
EXTT14=
EXTT15=
EXTT16=
EXTT17=
EXTT18=
EXTT19=
EXTT20=
PLAYORDER=
